<?xml version="1.0" encoding="UTF-8"?><svg id="Warstwa_2" xmlns="http://www.w3.org/2000/svg" viewBox="0 0 1559.95 1510"><defs><style>.cls-1{fill:#fff;}.cls-2{fill:#1a1e22;}</style></defs><g id="_2"><g><g><path class="cls-1" d="M1546.91,868.65c7.8-198.87,7.48-382.31,.3-581.21-245.83,4.36-494.31-4.16-740.14,.19,1.16,194.74,4.73,389.47,10.71,584.11,236.4-3.46,492.72,.37,729.13-3.09Z"/><path d="M933.49,871.74c7.29-224.63-4.66-485.04,3.58-718.12,38.85,1.89,78.87,4.27,117.72,6.17-.58,235.52,5.69,476.42,5.12,711.94h-126.41Z"/><path d="M1124.71,871.74c7.29-125.43-4.66-270.83,3.58-400.98,38.85,1.06,78.87,2.39,117.72,3.44-.58,131.51,5.69,266.02,5.12,397.53h-126.41Z"/><path d="M1313.59,871.74c7.29-84.58-4.66-182.63,3.58-270.39,38.85,.71,78.87,1.61,117.72,2.32-.58,88.68,5.69,179.38,5.12,268.06h-126.41Z"/><path class="cls-2" d="M971.77,131.58c-2.72,0-4.94-2.18-5-4.9l-2.36-121.58c-.05-2.76,2.14-5.04,4.9-5.1,.03,0,.07,0,.1,0,2.72,0,4.94,2.18,5,4.9l2.36,121.58c.05,2.76-2.14,5.04-4.9,5.1-.03,0-.07,0-.1,0Z"/><path class="cls-2" d="M1007.55,120.55c-.2,0-.4-.01-.6-.04-2.74-.33-4.7-2.82-4.37-5.56,1.98-16.39,1.98-33.72,0-50.1-.33-2.74,1.62-5.23,4.37-5.56,2.75-.34,5.23,1.62,5.56,4.37,2.07,17.17,2.07,35.33,0,52.5-.31,2.54-2.46,4.4-4.96,4.4Z"/><path class="cls-2" d="M896.85,266.99c-1.58,0-3.13-.75-4.1-2.14-15.26-21.85-32.58-42.46-51.47-61.26-1.96-1.95-1.96-5.11-.02-7.07,1.95-1.96,5.11-1.96,7.07-.02,19.31,19.22,37.01,40.29,52.61,62.62,1.58,2.26,1.03,5.38-1.23,6.96-.87,.61-1.87,.9-2.86,.9Z"/><path class="cls-2" d="M908.17,248.75c-2.41,0-4.53-1.74-4.93-4.19l-4.58-28c-.45-2.73,1.4-5.3,4.13-5.74,2.72-.45,5.3,1.4,5.74,4.13l4.58,28c.45,2.73-1.4,5.3-4.13,5.74-.27,.04-.54,.07-.81,.07Z"/><path class="cls-2" d="M1092.52,262.8c-.3,0-.6-.03-.9-.08-2.72-.49-4.52-3.1-4.02-5.81l4.66-25.65c.49-2.72,3.09-4.52,5.81-4.02,2.72,.49,4.52,3.1,4.02,5.81l-4.66,25.65c-.44,2.41-2.54,4.11-4.91,4.11Z"/><path class="cls-2" d="M1113.85,267.1c-1.32,0-2.64-.52-3.62-1.56-1.9-2-1.82-5.17,.18-7.07l51.41-48.86c2-1.9,5.17-1.82,7.07,.18,1.9,2,1.82,5.17-.18,7.07l-51.41,48.86c-.97,.92-2.21,1.38-3.44,1.38Z"/><path class="cls-2" d="M817.84,876.74c-2.7,0-4.91-2.14-5-4.85-5.99-193.81-9.62-390.37-10.78-584.24-.02-2.74,2.17-4.98,4.91-5.03,32.2-.57,65.3-.94,101.19-1.13h.03c2.75,0,4.98,2.22,5,4.97,.01,2.76-2.21,5.01-4.97,5.03-34.01,.18-65.51,.52-96.12,1.04,1.18,190.54,4.75,383.65,10.59,574.13,117.51-1.66,241.74-1.56,361.93-1.48,120.21,.09,244.47,.18,361.96-1.48,4.96-129.41,3.43-247.63,1.81-372.71-.82-63.4-1.67-128.91-1.7-198.49-122.11,2.06-246.76,1.02-367.38,0-35.07-.29-71.34-.6-106.98-.82-2.76-.02-4.99-2.27-4.97-5.03,.02-2.75,2.25-4.97,5-4.97h.03c35.66,.22,71.93,.53,107,.82,122.22,1.02,248.6,2.08,372.2-.09,1.31-.05,2.63,.49,3.59,1.43,.96,.94,1.5,2.23,1.5,3.57,0,71.41,.86,138.53,1.7,203.45,1.64,126.74,3.18,246.44-2,377.96-.1,2.65-2.27,4.76-4.92,4.8-118.96,1.73-244.98,1.64-366.85,1.55-121.83-.09-247.81-.19-366.69,1.54-.03,0-.05,0-.08,0Z"/></g><g><path class="cls-1" d="M410.16,678.94c80.09-28.33,167.93-24.86,252-12.65,39.44,5.73,80.06,13.91,112.29,37.35,49.22,35.8,68.83,99.39,79.06,159.39,14.83,87.05,16.35,176.35,4.47,263.85-6.93,51.03-19.59,103.9-53.95,142.27-33.35,37.24-82.54,55.73-130.6,69.48-100.63,28.81-232.99,46.74-329.75-4.45-87.28-46.17-132.81-148.76-137.53-247.39-4.21-87.86,14.66-189.49,47.78-271.12,25.83-63.66,92.11-115.35,156.24-136.73Z"/><g><path class="cls-1" d="M538.26,792.67c66.79,3.96,166.66-18.83,218.5-70.66-21.55-40.73-17.94-99.68-19.27-144.87-2.27-77.04-2.08-157.45-45.85-225.28-55.57-86.1-165.19-101.07-247.53-46.06-44.35,29.63-64.49,76.88-78.99,126.71-25.28,86.87-31.63,180.35-30.65,270.51,.04,3.48,.09,6.97,.17,10.45,0,0,87.86,72.33,203.63,79.19Z"/><path class="cls-2" d="M553.47,798.11c-5.32,0-10.5-.15-15.51-.45-60.68-3.6-113.56-25.22-147.24-42.73-36.48-18.96-58.36-36.84-59.27-37.6-1.12-.92-1.79-2.29-1.82-3.75-.08-3.5-.13-7.01-.17-10.51-1.18-109.16,8.62-195.58,30.85-271.97,8.74-30.03,17.88-52.91,28.76-72.01,13.96-24.5,31.05-43.3,52.25-57.46,43.02-28.74,95.32-39.5,143.5-29.51,45.64,9.46,85.07,36.81,111.02,77.02,42.15,65.32,44.26,141.56,46.29,215.29,.12,4.19,.23,8.38,.35,12.55,.22,7.59,.31,15.43,.39,23.73,.43,40.35,.92,86.09,18.3,118.95,1.03,1.94,.67,4.32-.88,5.87-48.49,48.49-139.09,72.56-206.82,72.56Zm-14.92-10.43c65.44,3.88,161.13-18.2,212.08-66.68-16.85-34.62-17.33-79.98-17.76-120.16-.09-8.25-.17-16.04-.39-23.54-.12-4.18-.24-8.37-.35-12.57-2-72.35-4.07-147.17-44.7-210.14-24.48-37.94-61.65-63.74-104.64-72.65-45.57-9.45-95.11,.78-135.91,28.04-44.73,29.88-64.01,79.43-76.96,123.95-21.95,75.41-31.62,160.91-30.45,269.06,.03,2.68,.07,5.37,.12,8.05,5.89,4.58,26.13,19.67,56,35.17,32.76,17,84.16,38,142.98,41.49h0Z"/></g><g><path class="cls-2" d="M579.59,569.59c13.19-40.97-47.84-63.37-49.97-30.89-.51,7.79,3.4,15.12,7.49,21.76,6.68,10.83,7.25,24.3,21.52,25.65,10.44,.99,18-7.36,20.96-16.53Z"/><path class="cls-2" d="M560.32,591.19c-.71,0-1.43-.03-2.16-.1-13.26-1.25-17.41-10.87-21.08-19.36-1.26-2.93-2.57-5.95-4.22-8.64-4.62-7.5-8.82-15.69-8.23-24.72,.59-9,5.06-15.59,12.58-18.56,10.73-4.24,25.76-.13,36.55,9.98,11.66,10.93,15.51,25.99,10.58,41.32h0c-3.3,10.24-11.92,20.08-24.03,20.08Zm-13.91-63.04c-2,0-3.88,.31-5.52,.96-3.83,1.51-5.95,4.85-6.28,9.92-.43,6.54,3.26,13.14,6.76,18.81,2.04,3.31,3.49,6.67,4.89,9.93,3.59,8.33,5.8,12.7,12.84,13.37,8.23,.77,13.63-6.56,15.73-13.08,5.07-15.75-2.77-26.16-7.9-30.96-5.99-5.61-13.96-8.94-20.52-8.94Zm33.18,41.43h0Z"/></g><g><path class="cls-2" d="M520.76,297.15c7.58-10.35,13.6-22.97,11.6-35.64-4.32-27.37-43.5-36.34-66.49-33.25-14.71,1.98-28.57,8.18-41.26,15.89-66.78,40.54-92.55,138.63-85.33,212.8,1.46,14.96,7.91,4.74,11.54-1.05,6.05-9.65,13.26-18.85,20.04-28,14.07-18.97,29.23-37.46,47.69-52.35,33.61-27.09,75.93-42.5,102.2-78.39Z"/><path class="cls-2" d="M342.8,469.74c-.53,0-1.07-.06-1.62-.19-5.82-1.37-6.56-8.9-6.87-12.11-3.83-39.3,1.71-83.47,15.18-121.18,15.63-43.74,40.71-77.06,72.53-96.38,15.32-9.3,29.44-14.72,43.18-16.57,13.36-1.8,29.75,.31,42.77,5.51,16.72,6.68,27.14,18.01,29.33,31.91,1.92,12.16-2.29,25.41-12.5,39.37h0c-17.4,23.77-41.66,38.89-65.12,53.5-12.85,8-26.13,16.28-37.98,25.83-19.03,15.35-34.34,34.62-46.81,51.44-1.4,1.89-2.82,3.78-4.24,5.68-5.35,7.13-10.89,14.51-15.58,22-3.15,5.03-7.01,11.19-12.26,11.19Zm131.99-237.03c-2.96,0-5.75,.18-8.25,.51-12.35,1.66-25.22,6.64-39.33,15.2-63.97,38.83-90.15,134.05-82.95,208.04,0,.1,.02,.2,.03,.3,.93-1.34,1.81-2.74,2.3-3.53,4.91-7.85,10.58-15.4,16.06-22.7,1.41-1.88,2.82-3.76,4.21-5.63,12.85-17.33,28.66-37.21,48.57-53.27,12.32-9.93,25.87-18.37,38.97-26.53,23.7-14.76,46.08-28.71,62.33-50.92h0c8.58-11.73,12.18-22.47,10.7-31.91-3.35-21.22-32.2-29.58-52.63-29.58Zm45.97,64.44h0Z"/></g><path class="cls-2" d="M483.84,515.95c-.11,0-.22,0-.34,0-22.46-.11-42.08-11.17-53.82-30.34-13.86-22.64-11.09-51.04,7.24-74.12,17.6-22.15,46.21-29.68,74.67-19.64h0c18.29,6.45,31.7,19.59,37.79,37,6.2,17.74,3.68,37.62-6.92,54.53-12.6,20.11-35.04,32.57-58.62,32.57Zm3.02-118.37c-14.75,0-30.37,5.36-42.11,20.13-15.65,19.7-18.16,43.72-6.55,62.68,9.89,16.15,26.42,25.47,45.34,25.56,.1,0,.19,0,.29,0,20.17,0,39.36-10.66,50.15-27.88,8.97-14.32,11.14-31.06,5.95-45.92-5.06-14.49-16.31-25.45-31.67-30.87-6.47-2.28-13.82-3.7-21.4-3.7Z"/><path class="cls-2" d="M653.04,517.65c-1.38,0-2.76-.04-4.14-.12-19.15-1.12-35.53-9.58-47.38-24.47-8.48-10.66-12.21-25.66-10.22-41.16,3.54-27.55,25.49-51.93,52.18-57.96,27.59-6.23,54.6,5.83,70.49,31.49h0c21.16,34.18,4.31,63.44-16.55,78.12-12.87,9.06-28.84,14.1-44.39,14.1Zm4.84-115.35c-3.9,0-7.97,.44-12.18,1.39-22.74,5.14-41.45,25.95-44.47,49.48-1.65,12.83,1.31,25.1,8.12,33.66,12.67,15.92,28.82,20.05,40.14,20.71,14.61,.85,29.99-3.58,42.19-12.17,18.13-12.76,31.28-36.45,13.8-64.68h0c-9.03-14.58-25.73-28.39-47.6-28.39Z"/><g><path class="cls-2" d="M661.6,435.01c-7.61-2.29-15.88,3.09-14.62,11.6,1.72,11.6,20.21,15.77,23.15,2.53,1.31-5.91-2.73-12.38-8.53-14.13Z"/><path class="cls-2" d="M660.16,462.35c-.21,0-.42,0-.63-.01-7.44-.27-16.1-5.61-17.49-15-.79-5.36,1.04-10.41,5.03-13.86,4.27-3.69,10.39-4.94,15.97-3.26,8.34,2.5,13.82,11.66,11.97,20-1.65,7.43-7.44,12.14-14.85,12.14Zm-2.16-22.88c-1.64,0-3.21,.54-4.39,1.57-.97,.84-2.04,2.35-1.68,4.83,.58,3.89,4.5,6.35,7.95,6.47,2.92,.12,4.71-1.34,5.37-4.3,.72-3.24-1.75-7.25-5.09-8.25h0c-.71-.21-1.44-.32-2.16-.32Z"/></g><g><path class="cls-2" d="M493.71,433.01c-7.61-2.29-15.88,3.09-14.62,11.6,1.72,11.6,20.21,15.77,23.15,2.53,1.31-5.91-2.73-12.38-8.53-14.13Z"/><path class="cls-2" d="M492.27,460.36c-.21,0-.42,0-.63-.01-7.44-.27-16.1-5.61-17.49-15-.79-5.36,1.04-10.41,5.03-13.86,4.27-3.69,10.39-4.94,15.97-3.26h0c8.34,2.5,13.82,11.66,11.97,20-1.65,7.43-7.44,12.14-14.85,12.14Zm-2.16-22.88c-1.64,0-3.21,.54-4.39,1.57-.97,.84-2.04,2.35-1.68,4.83,.58,3.89,4.5,6.35,7.95,6.47,2.93,.13,4.71-1.34,5.37-4.3,.72-3.24-1.75-7.25-5.08-8.25h0c-.71-.21-1.44-.32-2.16-.32Z"/></g><g><path class="cls-2" d="M707.36,312.43c-9.9-20.27-23.48-39.07-41.87-55.68-22.03-19.9-45.93-26.19-74.47-30.89-17.75-2.92-38.86-.76-49.12,14.01-6.54,9.41-6.96,22.1-3.4,33,3.56,10.9,10.65,20.28,18.31,28.8,19.19,21.35,43.52,37.08,66.48,53.8,22.84,16.64,47.77,24.96,67.61,45.98,15.87,16.82,41.1,48.17,39.71,73.37,3.1-56.05,.62-113.51-23.24-162.39Z"/><path class="cls-2" d="M730.6,479.82c-.09,0-.19,0-.28,0-2.76-.15-4.87-2.51-4.72-5.27h0s0-.01,0-.02c.45-8.26-2.4-31.55-38.35-69.64-11.81-12.52-25.5-20.33-40-28.61-8.87-5.06-18.04-10.3-26.91-16.76-4-2.92-8.13-5.86-12.12-8.71-19.14-13.66-38.94-27.78-55.13-45.79-6.84-7.61-15.22-17.96-19.35-30.59-4.39-13.44-2.88-27.43,4.05-37.4,9.75-14.04,29.96-20.06,54.04-16.1,25.65,4.22,52.72,10.18,77.01,32.11,17.9,16.17,32.37,35.41,43.01,57.2h0c26.16,53.58,26.43,116.25,23.74,164.86-.15,2.66-2.35,4.72-4.99,4.72Zm-152.88-250.04c-10.61,0-24.34,2.33-31.72,12.95-5.15,7.42-6.18,18.11-2.76,28.59,3.54,10.85,11.1,20.14,17.28,27.01,15.46,17.2,34.79,30.99,53.5,44.33,4.01,2.86,8.16,5.82,12.2,8.77,8.42,6.13,17.35,11.23,25.99,16.16,14.49,8.27,29.48,16.83,42.31,30.43,16.1,17.06,26.08,31.56,32.16,43.48,.23-40.76-4.21-86.71-23.83-126.88-10.08-20.63-23.78-38.85-40.73-54.16-20.19-18.23-41.66-24.68-71.93-29.67-2.54-.42-7.11-1.01-12.48-1.01Z"/></g><path class="cls-2" d="M593.46,460.04c-1.98,0-3.85-1.18-4.63-3.12-2.16-5.33-10-8.35-16.82-8.98-6.42-.59-16.42,2.69-19.69,7.8-1.49,2.33-4.58,3.01-6.91,1.52-2.33-1.49-3.01-4.58-1.52-6.91,5.61-8.77,19.45-13.26,29.03-12.37,9.55,.88,21.17,5.33,25.17,15.17,1.04,2.56-.19,5.47-2.75,6.51-.62,.25-1.25,.37-1.88,.37Z"/><path class="cls-2" d="M425.98,462.53c-1,0-2.01-.3-2.88-.92-14.35-10.16-28.96-16.63-43.9-22.89-23.51-9.86-42.5-10.95-56.45-3.23-2.42,1.34-5.46,.46-6.8-1.95-1.34-2.42-.46-5.46,1.95-6.8,16.76-9.28,38.69-8.35,65.16,2.75,15.48,6.49,30.63,13.21,45.81,23.96,2.25,1.6,2.79,4.72,1.19,6.97-.97,1.38-2.52,2.11-4.09,2.11Z"/><g><path class="cls-1" d="M368.61,472.76c-1.56-14.09-1.17-28.94-16.39-33.65-11.49-3.55-23.37,3.5-32.1,13.06-9.45,10.36-16.7,24.28-18.51,39.79-1.81,15.52,2.41,32.56,12.24,42.81,17.26,17.99,39.58,4.58,51.46-14.39,6.32-10.09,9.28-24.08,5.47-36.13-1.14-3.61-1.74-7.52-2.17-11.49Z"/><path class="cls-2" d="M336.48,549.84c-5.92,0-11.87-1.71-17-5.06-12.25-8-20.56-24.31-21.69-42.57-.97-15.57,3.17-32.17,11.65-46.76,9.06-15.58,21.25-24.25,33.41-23.85,7.26,.26,14.95,4.91,20.07,12.14,5.28,7.46,6.93,16.12,4.53,23.77-.83,2.63-3.63,4.1-6.27,3.27-2.63-.83-4.1-3.63-3.27-6.27,1.46-4.64,.31-10.1-3.15-15-3.3-4.66-8.11-7.77-12.25-7.92-8.24-.3-17.37,6.77-24.41,18.88-7.5,12.9-11.16,27.5-10.32,41.12,.93,14.94,7.67,28.61,17.18,34.82,6.05,3.95,13.73,4.54,20.05,1.55,2.5-1.18,5.48-.12,6.66,2.38,1.18,2.5,.12,5.48-2.38,6.66-4.02,1.91-8.4,2.85-12.8,2.85Z"/></g><path class="cls-2" d="M338.7,511.51c-.63,0-1.27-.12-1.89-.38-8.02-3.29-12.28-12.94-9.32-21.08,2.97-8.14,12.44-12.79,20.7-10.15,2.63,.84,4.08,3.66,3.24,6.29-.84,2.63-3.65,4.08-6.29,3.24-3.12-1-7.13,.97-8.25,4.05-1.12,3.08,.68,7.17,3.71,8.41,2.56,1.05,3.78,3.97,2.73,6.52-.79,1.93-2.66,3.1-4.63,3.1Z"/><g><path class="cls-1" d="M972.47,1116.14c-.21-42.72-3.85-85.42-8.43-127.86-5.37-49.74-12.36-99.3-20.15-148.72-7.84-49.77-16.53-99.41-25.8-148.93-7.35-39.28-15.36-79.26-23.48-118.7-5.97-28.98-11.1-58.14-17.63-87-6.17-27.29-13.04-55.97-26.42-80.75-7.47-13.84-20.88-33.3-37.17-36.88-10.13-2.23-25.27-.12-27.87,10.87-13.52-11.74-30.14-18.88-45.45-7.57-2.31,1.71-3.99,3.68-5.17,5.85-12.49-9.66-27.36-16.23-43.18-17.52-11.25-.92-23.21,1.05-32.08,7.85-8.87,6.8-8.75,15.14-4.46,25.29,39.19,12.31,78.47,39.12,56.95,86.05-9.48,20.68-31.08,34.01-53.45,36.01-15.55,1.39-40.37-9.46-48.37,10.68-3.64,9.17,1.92,19.71,9.88,25.75,7.96,6.04,17.92,8.87,27.21,12.74,57.59,23.99,89.29,88.45,96.8,147.32,16.29,127.67,27.08,257.06,18.89,385.63l-8.63,146.27,208.68-40.01c9.39-27.19,9.49-57.94,9.35-86.35Z"/><path class="cls-1" d="M920.24,702.19c-.71-3.86-1.43-7.71-2.15-11.56-7.35-39.28-15.36-79.26-23.48-118.7-5.97-28.98-11.1-58.14-17.63-87-6.17-27.29-13.04-55.97-26.42-80.75-7.47-13.84-20.88-33.3-37.17-36.88-10.13-2.23-25.27-.12-27.87,10.87-13.52-11.74-30.14-18.88-45.45-7.57-2.31,1.71-3.99,3.68-5.17,5.85-12.49-9.66-27.36-16.23-43.18-17.52-11.25-.92-23.21,1.05-32.08,7.85-8.87,6.8-8.75,15.14-4.46,25.29,39.19,12.31,78.47,39.12,56.95,86.05-9.48,20.68-31.08,34.01-53.45,36.01-15.55,1.39-40.37-9.46-48.37,10.68-3.64,9.17,1.92,19.71,9.88,25.75,7.96,6.04,17.92,8.87,27.21,12.74,57.59,23.99,89.29,88.45,96.8,147.32,1.44,11.27,2.83,22.55,4.18,33.85,0,0,44.6,13.55,92.6,.55,55.03-14.9,79.29-42.81,79.29-42.81Z"/><path class="cls-2" d="M763.06,1101.23c-.11,0-.21,0-.32,0-2.76-.18-4.85-2.55-4.67-5.31,6.45-101.07,1.76-212.72-14.74-351.37-.33-2.74,1.63-5.23,4.37-5.56,2.75-.34,5.23,1.63,5.56,4.37,16.58,139.27,21.28,251.49,14.79,353.18-.17,2.65-2.37,4.68-4.99,4.68Z"/><path class="cls-2" d="M963.11,1207.5c-.54,0-1.09-.09-1.63-.27-2.61-.9-4-3.75-3.09-6.36,9.36-27.12,9.21-59.04,9.08-84.7-.22-45.97-4.61-92.21-8.4-127.35-4.79-44.39-11.37-92.96-20.12-148.48-6.87-43.61-14.6-88.5-23.63-137.23-.5-2.72,1.29-5.32,4-5.83,2.71-.51,5.33,1.29,5.83,4,9.05,48.83,16.79,93.8,23.67,137.5,8.77,55.68,15.37,104.41,20.18,148.96,3.82,35.38,8.23,81.95,8.46,128.38,.13,26.41,.29,59.28-9.63,88.01-.71,2.07-2.65,3.37-4.73,3.37Z"/><path class="cls-2" d="M828.91,460.25c-2.18,0-4.19-1.44-4.81-3.65-4.1-14.55-13.01-37.1-20.84-49.65-9.34-14.96-25.98-33.53-42.15-36.61-6.58-1.25-12.49,.15-18.07,4.28-1.24,.92-2.36,2.04-3.31,3.35-1.63,2.23-4.76,2.71-6.99,1.08-2.23-1.63-2.71-4.76-1.08-6.99,1.55-2.12,3.38-3.96,5.44-5.48,7.84-5.8,16.55-7.83,25.89-6.06,24.94,4.75,45,35.1,48.77,41.14,8.3,13.31,17.7,37.01,21.98,52.23,.75,2.66-.8,5.42-3.46,6.17-.45,.13-.91,.19-1.36,.19Z"/><path class="cls-2" d="M793.8,755.18c-16.17,0-31.96-2.14-46.88-6.41-1.94-.55-3.35-2.22-3.59-4.22-1.27-10.69-2.66-21.9-4.11-33.31-3.86-30.28-14.14-60.39-28.93-84.77-16.76-27.62-39.18-47.87-64.83-58.56-2.21-.92-4.54-1.81-6.79-2.67-7.35-2.81-14.94-5.71-21.52-10.71-8.9-6.75-16.29-19.51-11.5-31.58,7.18-18.09,25.58-16.04,39.01-14.55,5.01,.56,9.74,1.08,13.56,.74,22.92-2.05,42.26-14.57,49.26-31.9,6.4-15.84,6.76-29.99,1.07-42.05-9.68-20.5-35.19-32.17-54.88-38.36-1.4-.44-2.54-1.47-3.11-2.82-8.49-20.08,2.44-28.45,6.03-31.2,8.94-6.85,21.56-10,35.53-8.86,24.13,1.96,47.61,15.49,64.43,37.11,15.34,19.72,28.31,53.88,33.2,77.43,.56,2.7-1.18,5.35-3.88,5.91-2.71,.56-5.35-1.18-5.91-3.88-4.54-21.87-17.05-55-31.3-73.32-15.1-19.41-36-31.54-57.35-33.28-11.49-.93-21.66,1.49-28.63,6.83-4.82,3.7-7.14,7.97-3.73,17.28,29.73,9.74,49.98,24.55,58.64,42.89,6.94,14.68,6.65,31.53-.84,50.06-4.41,10.91-12.55,20.26-23.54,27.04-9.94,6.14-21.73,9.97-34.1,11.07-4.82,.43-10.03-.15-15.55-.76-15.08-1.67-24.54-1.95-28.62,8.31-2.73,6.89,2.08,15.24,8.26,19.92,5.44,4.13,12.05,6.65,19.05,9.33,2.32,.89,4.71,1.8,7.06,2.78,27.62,11.51,51.67,33.15,69.54,62.6,15.5,25.55,26.27,57.05,30.3,88.7,1.31,10.26,2.56,20.35,3.72,30.06,53.87,14.09,119.56-1.98,161.96-39.67-.55-2.94-1.09-5.87-1.64-8.81-6.58-35.12-14.03-72.81-23.47-118.62-2.24-10.89-4.4-21.98-6.49-32.7-3.47-17.81-7.06-36.24-11.12-54.2-6.7-29.6-13.27-56.01-25.94-79.48-4.96-9.19-18.19-30.93-33.85-34.37-7.1-1.56-14.3-.84-17.93,1.8-1.63,1.19-2.48,2.69-2.68,4.73-.26,2.75-2.69,4.76-5.46,4.5-2.75-.27-4.76-2.71-4.5-5.46,.47-4.88,2.8-8.98,6.74-11.85,7.15-5.21,18.1-5.21,25.96-3.48,18.99,4.18,33.52,26.47,40.5,39.39,13.25,24.55,20.29,52.81,26.9,82.02,4.1,18.12,7.7,36.61,11.18,54.5,2.08,10.7,4.24,21.76,6.47,32.6,9.45,45.86,16.92,83.61,23.5,118.79,.72,3.86,1.44,7.71,2.15,11.57,.31,1.69-.26,3.42-1.53,4.59-21.77,20.07-50.93,35.44-82.12,43.28-15.99,4.02-32.03,6.03-47.71,6.03Z"/></g><path class="cls-2" d="M572.62,1008.83c-.15,0-.3,0-.45-.02-2.75-.24-4.78-2.67-4.54-5.42,6.1-69.14,4.12-138.97-5.89-207.56-.4-2.73,1.49-5.27,4.23-5.67,2.74-.4,5.27,1.49,5.67,4.23,10.12,69.35,12.12,139.97,5.96,209.88-.23,2.6-2.41,4.56-4.97,4.56Z"/><path class="cls-2" d="M521.54,959.59c-2.61,0-5.2-1.03-7.23-2.9-2.29-2.11-3.57-5.02-3.51-7.97,.06-2.95,1.46-5.81,3.84-7.82,2.38-2.02,5.42-2.93,8.34-2.51,2.73,.39,4.63,2.93,4.24,5.66-.39,2.73-2.91,4.64-5.65,4.24-.25,0-.73,.41-.77,.66,.03,.22,.5,.65,.75,.66,2.75-.29,5.19,1.72,5.47,4.47,.28,2.75-1.73,5.2-4.48,5.48-.33,.03-.66,.05-1,.05Z"/><path class="cls-2" d="M516.23,887.16c-2.61,0-5.2-1.03-7.23-2.9-2.29-2.11-3.57-5.02-3.51-7.97,.06-2.95,1.46-5.81,3.84-7.82,2.38-2.02,5.42-2.93,8.34-2.51,2.73,.39,4.63,2.93,4.24,5.66-.39,2.73-2.91,4.63-5.65,4.24-.25,0-.73,.41-.77,.66,.03,.22,.5,.65,.75,.66,2.75-.28,5.19,1.72,5.47,4.47,.28,2.75-1.73,5.2-4.48,5.48-.33,.03-.66,.05-1,.05Z"/><path class="cls-1" d="M334.63,713.48C175.76,771.72,36.44,906.99,9.71,1078.9c-21.8,140.19,31.26,293.52,157.82,366.8,80.12,46.39,175.47,60.45,266.85,59.23,57.67-.77,115.26-7.71,171.7-19.41,18.81-3.9,37.5-8.41,55.99-13.61,116-32.63,229.29-87.62,307.39-182.08,5.56-6.72,52.41-65.49,26.45-68.19-6.87-.71-18.12,9.47-23.18,13.05-11.03,7.8-21.61,16.24-32.07,24.78-10.61,8.67-21.09,17.51-31.39,26.54,34.71-30.48,72.43-61.14,81.53-97.45,1.94-7.75-7.23-14.58-15.21-14.1-7.97,.47-14.79,5.65-21.05,10.61-26.11,20.67-81.16,63.73-80.5,61.74,31.23-23.92,68.45-49.18,97.33-80.38,5.36-5.79,9.9-13.82,7.63-21.37-2.14-7.14-10.33-11.04-17.78-10.72-7.45,.32-14.32,3.88-20.91,7.37-43.42,23.03-81.86,53.73-126.15,75.4-142.27,69.62-402.58,135.81-505.42-31.39l25.86-472.24Z"/><path class="cls-2" d="M423.79,1510c-102.99,0-189.99-20.16-258.76-59.97-61.12-35.39-108.38-90.98-136.67-160.75-26.29-64.85-34.67-139.84-23.58-211.14,12.7-81.65,51.63-159.89,112.6-226.26,56.97-62.02,130.01-110.94,211.22-141.48,2.58-.98,5.47,.33,6.44,2.92,.97,2.58-.34,5.47-2.92,6.44-79.75,29.99-151.45,78.02-207.37,138.89-59.63,64.91-97.69,141.34-110.09,221.03-10.81,69.54-2.65,142.64,22.97,205.85,27.45,67.7,73.24,121.59,132.42,155.86,69.54,40.26,158.47,59.96,264.27,58.56,55-.73,112.45-7.23,170.76-19.3,19.03-3.94,37.76-8.49,55.65-13.53,25.33-7.12,49.81-15.14,72.77-23.82,2.59-.97,5.47,.33,6.45,2.91,.98,2.58-.33,5.47-2.91,6.45-23.23,8.79-47.99,16.89-73.6,24.1-18.12,5.1-37.07,9.7-56.33,13.69-58.93,12.2-117.02,18.77-172.65,19.51-3.57,.05-7.13,.07-10.66,.07Z"/><path class="cls-2" d="M526.1,1295.65c-18.92,0-36.99-1.23-54.05-3.72-75.67-11.03-132.04-45.88-167.54-103.59-1.45-2.35-.71-5.43,1.64-6.88,2.35-1.45,5.43-.71,6.88,1.64,33.87,55.07,87.86,88.35,160.46,98.93,59.05,8.61,130.8,1.8,207.51-19.67,2.66-.75,5.42,.81,6.16,3.47,.75,2.66-.81,5.42-3.47,6.16-56,15.68-109.51,23.66-157.59,23.66Z"/><g><path class="cls-1" d="M735.26,1447.95c-40.41-48.83-59.78-117.77-52.92-180.77,48.78-13.66,94.4-31.74,131.85-50.07,44.28-21.67,82.73-52.37,126.15-75.4,6.59-3.49,13.46-7.05,20.91-7.37,7.45-.32,15.64,3.58,17.78,10.72,2.27,7.55-2.28,15.59-7.63,21.37-28.89,31.2-66.1,56.46-97.33,80.38-.66,1.99,54.39-41.07,80.5-61.74,6.26-4.96,13.08-10.14,21.05-10.61,7.97-.48,17.15,6.35,15.21,14.1-9.1,36.32-46.82,66.97-81.53,97.45,10.3-9.03,20.78-17.88,31.39-26.54,10.46-8.54,21.04-16.98,32.07-24.78,5.06-3.58,16.31-13.76,23.18-13.05,25.96,2.69-20.89,61.47-26.45,68.19-61.52,74.41-144.88,124.33-234.2,158.12Z"/><path class="cls-2" d="M735.27,1452.95c-1.46,0-2.88-.64-3.85-1.81-20.11-24.3-35.72-54.34-45.14-86.87-9.29-32.08-12.36-65.84-8.9-97.64,.22-2.03,1.66-3.72,3.62-4.27,56.69-15.87,102.52-35.81,131-49.74,23.67-11.58,46.15-26.09,67.88-40.12,18.67-12.05,37.98-24.52,58.12-35.2,6.36-3.37,14.27-7.57,23.04-7.95,9.07-.42,19.82,4.38,22.79,14.28,3.23,10.75-3.73,20.67-8.42,25.84,6.32-.34,13,2.58,17.06,7.47,3.18,3.84,4.32,8.4,3.21,12.84-2.96,11.81-8.74,22.99-16.36,33.7,5.51-3.9,11.72-7.37,17.13-6.81,7,.73,9.96,4.54,11.22,7.61,4.23,10.34-5.51,27.59-13.2,39.67-9.65,15.16-20.67,28.51-21.13,29.08-56.06,67.8-135.56,121.5-236.29,159.61-.58,.22-1.18,.32-1.77,.32Zm-48.29-181.89c-5.63,60.23,13.3,125.08,49.88,170.93,97.49-37.4,174.43-89.65,228.75-155.34,23.45-28.36,35.28-52.49,32.78-58.58-.14-.35-.48-1.18-3-1.44-3.57-.36-12.3,6.43-16.04,9.33-1.43,1.11-2.66,2.07-3.73,2.82-11.21,7.93-21.91,16.5-31.79,24.57-10.75,8.78-21.26,17.67-31.25,26.42,0,0,0,0,0,0-2.08,1.82-5.24,1.61-7.05-.46-1.82-2.08-1.62-5.23,.46-7.05,0,0,0,0,0,0h0s.02-.02,.03-.03c2.57-2.25,5.15-4.51,7.73-6.76,31.55-27.54,64.17-56.02,72.22-88.12,.33-1.31-.08-2.67-1.21-4.03-2.01-2.43-5.74-4.05-8.85-3.87-6.19,.37-11.93,4.54-18.24,9.54-11.92,9.43-32.06,25.26-49.58,38.82-9.17,7.09-16.46,12.66-21.66,16.55-2.93,2.19-5.22,3.86-6.81,4.98-2.64,1.85-5.37,3.75-8.41,1.62-1.81-1.27-2.58-3.64-1.88-5.74,.32-.95,.91-1.78,1.7-2.39,6.42-4.92,12.95-9.78,19.86-14.93,26.64-19.86,54.18-40.39,76.85-64.87,2.61-2.82,8.46-10.06,6.51-16.54-1.43-4.77-7.61-7.38-12.78-7.16-6.51,.28-13.03,3.74-18.79,6.79-19.76,10.48-38.89,22.83-57.38,34.77-21.98,14.19-44.71,28.86-68.91,40.71-40.37,19.75-85.04,36.83-129.41,49.46Z"/></g></g><g><path class="cls-2" d="M1069.92,1352.25c-2.74,0-4.97-2.21-5-4.95-.03-2.76,2.19-5.02,4.95-5.05,69.98-.68,148.74-1.38,224.9-2.05,76.46-.67,155.51-1.37,225.75-2.05h.05c2.74,0,4.97,2.21,5,4.95,.03,2.76-2.19,5.02-4.95,5.05-70.24,.68-149.3,1.38-225.76,2.05-76.16,.67-154.92,1.36-224.89,2.05h-.05Z"/><path class="cls-2" d="M1074.05,1194.95c-2.76,0-4.99-2.23-5-4.99,0-2.76,2.23-5,4.99-5.01,69.42-.14,146.34-.27,223.26-.41,76.92-.14,153.84-.27,223.26-.41h0c2.76,0,4.99,2.23,5,4.99,0,2.76-2.23,5-4.99,5.01-69.42,.14-146.34,.27-223.26,.41-76.92,.14-153.84,.27-223.26,.41h0Z"/><path class="cls-2" d="M1074.05,1040.28c-2.76,0-4.99-2.23-5-4.99,0-2.76,2.23-5,4.99-5.01,69.42-.14,146.34-.27,223.26-.41,76.92-.14,153.84-.27,223.26-.41h0c2.76,0,4.99,2.23,5,4.99,0,2.76-2.23,5-4.99,5.01-69.42,.14-146.34,.27-223.26,.41-76.92,.14-153.84,.27-223.26,.41h0Z"/><g><path d="M1136.93,1068.64c15.72,23.17,51.26,29.83,74.24,13.82,22.98-16.01,28.99-51.78,12.4-74.35-38.95-53-124.67,4.48-86.64,60.53Z"/><path class="cls-2" d="M1200.6,1022.83c-1.36,0-2.71-.55-3.7-1.64-1.86-2.04-1.71-5.21,.34-7.06l10.96-9.97c2.04-1.86,5.21-1.71,7.06,.34,1.86,2.04,1.71,5.21-.34,7.06l-10.96,9.97c-.96,.87-2.16,1.3-3.36,1.3Z"/></g><g><path d="M1370.18,1221.15c15.72,23.17,51.26,29.83,74.24,13.82,22.98-16.01,28.99-51.78,12.4-74.35-38.95-53-124.67,4.48-86.64,60.53Z"/><path class="cls-2" d="M1433.85,1175.34c-1.36,0-2.71-.55-3.7-1.64-1.86-2.04-1.71-5.21,.34-7.06l10.96-9.97c2.04-1.86,5.21-1.7,7.06,.34,1.86,2.04,1.71,5.21-.34,7.06l-10.96,9.97c-.96,.87-2.16,1.3-3.36,1.3Z"/></g><g><path d="M1223.65,1374.66c15.72,23.17,51.26,29.83,74.24,13.82,22.98-16.01,28.99-51.78,12.4-74.35-38.95-53-124.67,4.48-86.64,60.53Z"/><path class="cls-2" d="M1287.32,1328.84c-1.36,0-2.71-.55-3.7-1.64-1.86-2.04-1.71-5.2,.34-7.06l10.96-9.97c2.04-1.86,5.21-1.71,7.06,.34,1.86,2.04,1.71,5.21-.34,7.06l-10.96,9.97c-.96,.87-2.16,1.3-3.36,1.3Z"/></g></g></g></g></svg>